#!OML:ASF X:\für Bonn\!DataBase\2005_08_10_Bjorn_Final\c3d\bjorn.ASF
:FULLY-SPECIFIED
:DEGREES
140
root 0.679751 18.5253 2.87764 -174.103 -0.534718 -178.326
lowerback 3.33557 1.79322 5.01133
upperback 5.40076 2.10539 -1.00132
thorax 3.95915 1.12219 -3.84768
lowerneck -19.4901 -4.43751 -1.00641
upperneck 14.4609 -6.2634 2.53129
head 7.76965 -2.79604 0.233516
rclavicle 1.9133e-015 -1.04362e-014
rhumerus 70.3581 -1.03854 -72.076
rradius 12.1915
rwrist 38.1592
rhand -10.6201 9.76528
rfingers 7.12502
rthumb 15.3864 -19.6422
lclavicle 1.9133e-015 -1.04362e-014
lhumerus 77.8238 -12.0428 58.6219
lradius 11.8697
lwrist -35.0901
lhand -12.1625 -6.04086
lfingers 7.12502
lthumb 13.9004 23.4746
rfemur -25.8665 -10.0065 17.9983
rtibia 47.2096
rfoot -23.1898 14.497
rtoes -6.76493
lfemur -25.9221 3.6282 -19.1851
ltibia 48.7291
lfoot -22.1705 -3.76087
ltoes -13.0029
141
root 0.682989 18.6341 2.84002 -173.914 -0.621624 -178.367
lowerback 2.65584 1.79463 4.98911
upperback 5.2626 2.10908 -1.04382
thorax 4.19756 1.14072 -3.86101
lowerneck -19.0956 -4.4677 -0.925759
upperneck 14.6203 -6.34171 2.51396
head 7.75404 -2.83632 0.211191
rclavicle 3.70236e-015 -1.05356e-014
rhumerus 70.2633 -1.13098 -72.7173
rradius 11.766
rwrist 38.9277
rhand -10.84 9.93042
rfingers 7.12502
rthumb 15.1746 -19.4932
lclavicle 3.70236e-015 -1.05356e-014
lhumerus 77.8511 -12.2535 58.0396
lradius 11.6041
lwrist -34.3984
lhand -12.5288 -6.01238
lfingers 7.12502
lthumb 13.5474 23.5269
rfemur -24.7739 -10.0696 18.0273
rtibia 45.0977
rfoot -22.6792 14.3002
rtoes -6.06039
lfemur -24.8243 3.67064 -19.1986
ltibia 46.5181
lfoot -21.7035 -3.81232
ltoes -13.3368
142
root 0.68446 18.733 2.80301 -173.74 -0.610687 -178.423
lowerback 1.98433 1.82391 4.94753
upperback 5.15222 2.1456 -1.08592
thorax 4.46425 1.17397 -3.86224
lowerneck -18.7445 -4.49014 -0.858055
upperneck 14.7627 -6.40512 2.49937
head 7.74005 -2.86975 0.193153
rclavicle 2.73329e-015 4.17448e-015
rhumerus 70.2481 -1.20612 -73.2456
rradius 11.3566
rwrist 39.5339
rhand -11.0338 10.0634
rfingers 7.12502
rthumb 14.9879 -19.3742
lclavicle 2.73329e-015 4.17448e-015
lhumerus 78.0547 -12.4238 57.184
lradius 11.2309
lwrist -33.4628
lhand -12.9194 -5.98694
lfingers 7.12502
lthumb 13.1709 23.577
rfemur -23.7441 -10.0795 18.0199
rtibia 43.1228
rfoot -22.1592 14.1474
rtoes -5.37011
lfemur -23.7742 3.77181 -19.243
ltibia 44.4418
lfoot -21.2574 -3.86001
ltoes -13.6464
143
root 0.685549 18.8152 2.76842 -173.566 -0.603268 -178.445
lowerback 1.36378 1.8497 4.94776
upperback 5.00823 2.18149 -1.1211
thorax 4.6692 1.20654 -3.88123
lowerneck -18.3952 -4.50371 -0.706357
upperneck 14.9272 -6.45882 2.37392
head 7.72631 -2.90464 0.126443
rclavicle -2.43511e-015 -4.47266e-015
rhumerus 70.1477 -1.30975 -73.9703
rradius 11.0073
rwrist 40.3382
rhand -11.2385 10.1942
rfingers 7.12502
rthumb 14.7908 -19.258
lclavicle -2.43511e-015 -4.47266e-015
lhumerus 78.1306 -12.5618 56.6117
lradius 10.9991
lwrist -32.7912
lhand -13.1542 -5.93469
lfingers 7.12502
lthumb 12.9445 23.6438
rfemur -22.8324 -10.1148 18.0426
rtibia 41.3277
rfoot -21.6485 14.0321
rtoes -4.85974
lfemur -22.8285 3.88331 -19.2452
ltibia 42.5361
lfoot -20.7937 -3.9314
ltoes -13.9316
144
root 0.686534 18.8908 2.73341 -173.392 -0.564351 -178.487
lowerback 0.743489 1.89127 4.92396
upperback 4.88068 2.23579 -1.15815
thorax 4.893 1.24677 -3.88733
lowerneck -18.0789 -4.53029 -0.619896
upperneck 15.0652 -6.52572 2.32454
head 7.71433 -2.94201 0.0932266
rclavicle 3.66261e-014 -1.00386e-014
rhumerus 70.0707 -1.44049 -74.6653
rradius 10.6881
rwrist 41.1013
rhand -11.3953 10.3138
rfingers 7.12502
rthumb 14.6397 -19.1495
lclavicle 3.66261e-014 -1.00386e-014
lhumerus 78.0314 -12.5877 56.7795
lradius 10.9318
lwrist -32.9403
lhand -13.177 -5.87527
lfingers 7.12502
lthumb 12.9226 23.7046
rfemur -22.0059 -10.1074 18.0388
rtibia 39.6929
rfoot -21.1508 13.914
rtoes -4.43326
lfemur -21.9547 4.04264 -19.2733
ltibia 40.7789
lfoot -20.3531 -4.05472
ltoes -14.2002
145
root 0.687819 18.9566 2.69927 -173.237 -0.51639 -178.507
lowerback 0.151338 1.92646 4.91326
upperback 4.75823 2.28012 -1.18335
thorax 5.10594 1.28106 -3.88906
lowerneck -17.7854 -4.54141 -0.505326
upperneck 15.2149 -6.57395 2.24671
head 7.7076 -2.97142 0.0479182
rclavicle -2.69353e-014 -1.68967e-015
rhumerus 69.9911 -1.61224 -75.6071
rradius 10.4166
rwrist 42.0507
rhand -11.4923 10.4703
rfingers 7.12502
rthumb 14.5462 -18.9996
lclavicle -2.69353e-014 -1.68967e-015
lhumerus 77.964 -12.5566 56.9429
lradius 10.8412
lwrist -33.1145
lhand -13.1068 -5.89726
lfingers 7.12502
lthumb 12.9903 23.6783
rfemur -21.2588 -10.1253 18.0465
rtibia 38.24
rfoot -20.641 13.8421
rtoes -4.02703
lfemur -21.1504 4.19243 -19.273
ltibia 39.1903
lfoot -19.9378 -4.20533
ltoes -14.254
146
root 0.688796 19.014 2.66586 -173.082 -0.477108 -178.548
lowerback -0.41596 1.97142 4.91522
upperback 4.63601 2.33824 -1.24003
thorax 5.30927 1.32257 -3.93034
lowerneck -17.4851 -4.56638 -0.372073
upperneck 15.3226 -6.64837 2.19397
head 7.68621 -3.01055 0.00562954
rclavicle 4.81059e-014 -8.34896e-015
rhumerus 69.9163 -1.83224 -76.505
rradius 10.1879
rwrist 42.9358
rhand -11.518 10.5499
rfingers 7.12502
rthumb 14.5215 -18.9219
lclavicle 4.81059e-014 -8.34896e-015
lhumerus 78.1543 -12.6028 56.5407
lradius 10.5979
lwrist -32.8972
lhand -13.0279 -5.85901
lfingers 7.12502
lthumb 13.0663 23.7117
rfemur -20.5931 -10.1783 18.0293
rtibia 36.9339
rfoot -20.0997 13.8077
rtoes -3.7507
lfemur -20.4231 4.38481 -19.2965
ltibia 37.7482
lfoot -19.5378 -4.42846
ltoes -14.2152
147
root 0.689391 19.0645 2.6337 -172.926 -0.409737 -178.569
lowerback -0.976013 2.01757 4.92359
upperback 4.52478 2.39491 -1.2749
thorax 5.51983 1.36251 -3.95196
lowerneck -17.1777 -4.58217 -0.257751
upperneck 15.3858 -6.69841 2.12569
head 7.64833 -3.04096 -0.0347512
rclavicle 1.38652e-014 5.96354e-015
rhumerus 69.8772 -2.03564 -77.3779
rradius 10.0057
rwrist 43.8205
rhand -11.4694 10.5883
rfingers 7.12502
rthumb 14.5683 -18.8801
lclavicle 1.38652e-014 5.96354e-015
lhumerus 78.3222 -12.5844 56.2521
lradius 10.3621
lwrist -32.8426
lhand -12.9077 -5.86369
lfingers 7.12502
lthumb 13.1822 23.6996
rfemur -20.0185 -10.2738 18.0318
rtibia 35.769
rfoot -19.4633 13.8563
rtoes -3.47599
lfemur -19.7859 4.58092 -19.2969
ltibia 36.4737
lfoot -19.1781 -4.66622
ltoes -13.9828
